<?xml version="1.0" encoding="utf-8"?>
<!-- Generator: Adobe Illustrator 23.0.1, SVG Export Plug-In . SVG Version: 6.00 Build 0)  -->
<svg version="1.1" id="Layer_1" xmlns="http://www.w3.org/2000/svg" xmlns:xlink="http://www.w3.org/1999/xlink" x="0px" y="0px"
	 viewBox="0 0 1000 1000" style="enable-background:new 0 0 1000 1000;" xml:space="preserve">
<style type="text/css">
	.st0{fill-rule:evenodd;clip-rule:evenodd;fill:#5ABA48;}
	.st1{fill-rule:evenodd;clip-rule:evenodd;fill:#3E72B7;}
	.st2{fill-rule:evenodd;clip-rule:evenodd;fill:#535557;}
	.st3{fill-rule:evenodd;clip-rule:evenodd;fill:#010101;}
	.st4{fill-rule:evenodd;clip-rule:evenodd;fill:#D1D3D4;}
	.st5{fill-rule:evenodd;clip-rule:evenodd;}
</style>
<g id="organism-nav-xlg-_4_" transform="translate(-150,-422)">
	<g id="organism-_x2F_-footer-_x2F_-xlg_4_" transform="translate(0,361)">
		<g id="logo-copy-7_4_" transform="translate(150,61)">
			<g id="Group-3_4_" transform="translate(0,22.491134)">
				<path id="Fill-1_4_" class="st5" d="M591,731.6L371.5,588.7c0,0-27.6-15.9-33.8-45.3c-8.9-41.3,20.4-76.8,20.4-76.8L643,651.9
					c21.9,14.4,27.9,43.7,13.9,65.8C642.2,740.3,612.4,745.3,591,731.6"/>
			</g>
			<g id="Group-6_4_" transform="translate(1.201039,0.012799)">
				<path id="Fill-4_4_" class="st5" d="M381.6,458.5c0,0-33.6-20.2-33.6-67.3c0-46.8,33.6-66.8,33.6-66.8l120-78.5
					c22.1-14.2,51.4-8,65.8,13.9c14.2,21.9,8,51.4-13.9,65.8l-101.2,65.8l172.3,112.1c0,0,31,17.7,37.1,47.7
					c8.5,41.8-20.2,76.3-20.2,76.3L381.6,458.5z"/>
			</g>
			<path id="Fill-7_4_" class="st5" d="M608.9,344.5c-11.2,0-19.2,3.5-27.1,8.7l-58.6,38.1l58.6,38.1c7.9,5,16.2,8.7,27.1,8.7
				c25.9,0,46.8-20.9,46.8-46.8S634.8,344.5,608.9,344.5"/>
			<path id="Fill-9_4_" class="st5" d="M382.3,761.6c11.2,0,19.2-3.5,27.1-8.7l58.6-38.1l-58.6-38.1c-7.9-5-16.2-8.7-27.1-8.7
				c-25.9,0-46.8,20.9-46.8,46.8C335.5,740.7,356.4,761.6,382.3,761.6"/>
		</g>
	</g>
</g>
</svg>
